<svg width="198" height="67" viewBox="0 0 198 67" fill="none" xmlns="http://www.w3.org/2000/svg">
<path d="M38.3906 61.4531C36.1719 63.0156 33.3281 64.25 29.8594 65.1562C26.3906 66.0312 22.1406 66.4688 17.1094 66.4688C12.1094 66.4688 7.0625 66.1719 1.96875 65.5781V56.4844C6.53125 57.5156 11.125 58.0312 15.75 58.0312C20.375 58.0312 23.8438 57.7812 26.1562 57.2812C28.4688 56.75 30.3281 56.0625 31.7344 55.2188C34.3281 53.6562 35.625 51.625 35.625 49.125C35.625 47.1875 35.125 45.6875 34.125 44.625C32.5312 42.9688 30.2344 41.4531 27.2344 40.0781L15.2344 34.5938C11.1094 32.6562 8.1875 30.8594 6.46875 29.2031C2.78125 25.6406 0.9375 21.5156 0.9375 16.8281C0.9375 12.0156 3.03125 8.125 7.21875 5.15625C11.8125 1.90625 18.3438 0.28125 26.8125 0.28125C32.2812 0.28125 37.2812 0.5 41.8125 0.9375V9.89062C37.9688 9.01562 33.6719 8.57812 28.9219 8.57812C24.2031 8.57812 20.7656 8.82812 18.6094 9.32812C16.4844 9.79688 14.8125 10.4062 13.5938 11.1562C11.375 12.5312 10.2656 14.3438 10.2656 16.5938C10.2656 18.7812 10.9688 20.5938 12.375 22.0312C13.625 23.25 15.9062 24.6562 19.2188 26.25L31.5469 32.1094C35.6406 34.0469 38.5 35.875 40.125 37.5938C41.7812 39.3125 43 41.0469 43.7812 42.7969C44.5625 44.5156 44.9531 46.5938 44.9531 49.0312C44.9531 51.4375 44.4219 53.7188 43.3594 55.875C42.2969 58 40.6406 59.8594 38.3906 61.4531ZM57.375 0.75H66.75V66H57.375V0.75ZM125.625 65.625C122.531 66.1875 118.359 66.4688 113.109 66.4688C107.891 66.4688 103.172 65.75 98.9531 64.3125C94.7656 62.875 91.1562 60.75 88.125 57.9375C81.625 51.9062 78.375 43.5 78.375 32.7188C78.375 25.6875 80.0469 19.5938 83.3906 14.4375C87.9219 7.46875 94.875 3.03125 104.25 1.125C107.125 0.5625 110.547 0.28125 114.516 0.28125C118.516 0.28125 121.719 0.5 124.125 0.9375V9.89062C121.938 9.20312 118.547 8.85938 113.953 8.85938C109.391 8.85938 105.516 9.42188 102.328 10.5469C99.1406 11.6719 96.5 13.2812 94.4062 15.375C90.2188 19.4688 88.125 25.25 88.125 32.7188C88.125 40.25 90.1875 46.2188 94.3125 50.625C98.7812 55.375 105.203 57.75 113.578 57.75C118.484 57.75 122.5 57.375 125.625 56.625V65.625ZM135.234 33.4688C135.234 28.375 136 23.7656 137.531 19.6406C139.062 15.5156 141.188 12 143.906 9.09375C149.625 3.03125 157.047 0 166.172 0C175.328 0 182.734 3.03125 188.391 9.09375C194.141 15.25 197.016 23.375 197.016 33.4688C197.016 43.5625 194.141 51.6562 188.391 57.75C182.766 63.75 175.359 66.75 166.172 66.75C157.016 66.75 149.594 63.75 143.906 57.75C138.125 51.625 135.234 43.5312 135.234 33.4688ZM144.609 33.4219C144.609 40.5469 146.344 46.4375 149.812 51.0938C153.719 56.2812 159.172 58.875 166.172 58.875C173.172 58.875 178.609 56.2812 182.484 51.0938C185.922 46.5 187.641 40.6406 187.641 33.5156C187.641 26.3281 185.922 20.4062 182.484 15.75C178.609 10.5 173.172 7.875 166.172 7.875C159.141 7.875 153.688 10.5 149.812 15.75C146.344 20.4062 144.609 26.2969 144.609 33.4219Z" fill="#0000FF"/>
</svg>
